REM DIRINDEX 1\2,1\3,1\4,1\5
REM DIRNAME cjc004,folder01,folder02,folder03,folder04
TITLE ""
FILE "1Q_t_0949-0958.mp3" MP3
  TRACK 01 AUDIO
    TITLE "3:cjc004_3751"
    INDEX 01 00:00:00
  TRACK 02 AUDIO
    TITLE "0:"
    INDEX 01 00:01:07
  TRACK 03 AUDIO
    TITLE "4:cjc004_3752"
    INDEX 01 00:01:34
  TRACK 04 AUDIO
    TITLE "0:"
    INDEX 01 00:02:36
  TRACK 05 AUDIO
    TITLE "5:cjc004_3753"
    INDEX 01 00:02:59
  TRACK 06 AUDIO
    TITLE "0:"
    INDEX 01 00:08:32
  TRACK 07 AUDIO
    TITLE "3:cjc004_3754"
    INDEX 01 00:09:06
  TRACK 08 AUDIO
    TITLE "0:"
    INDEX 01 00:10:21
  TRACK 09 AUDIO
    TITLE "4:cjc004_3755"
    INDEX 01 00:10:55
  TRACK 10 AUDIO
    TITLE "0:"
    INDEX 01 00:11:56
  TRACK 11 AUDIO
    TITLE "5:cjc004_3756"
    INDEX 01 00:12:07
  TRACK 12 AUDIO
    TITLE "0:"
    INDEX 01 00:16:24
  TRACK 13 AUDIO
    TITLE "3:cjc004_3757"
    INDEX 01 00:17:08
  TRACK 14 AUDIO
    TITLE "0:"
    INDEX 01 00:18:25
  TRACK 15 AUDIO
    TITLE "4:cjc004_3758"
    INDEX 01 00:18:46
  TRACK 16 AUDIO
    TITLE "0:"
    INDEX 01 00:19:50
  TRACK 17 AUDIO
    TITLE "5:cjc004_3759"
    INDEX 01 00:20:06
  TRACK 18 AUDIO
    TITLE "0:"
    INDEX 01 00:24:55
  TRACK 19 AUDIO
    TITLE "3:cjc004_3760"
    INDEX 01 00:25:41
  TRACK 20 AUDIO
    TITLE "0:"
    INDEX 01 00:26:56
  TRACK 21 AUDIO
    TITLE "4:cjc004_3761"
    INDEX 01 00:27:04
  TRACK 22 AUDIO
    TITLE "0:"
    INDEX 01 00:28:39
  TRACK 23 AUDIO
    TITLE "5:cjc004_3762"
    INDEX 01 00:28:64
  TRACK 24 AUDIO
    TITLE "0:"
    INDEX 01 00:34:73
  TRACK 25 AUDIO
    TITLE "3:cjc004_3763"
    INDEX 01 00:35:45
  TRACK 26 AUDIO
    TITLE "0:"
    INDEX 01 00:37:05
  TRACK 27 AUDIO
    TITLE "4:cjc004_3764"
    INDEX 01 00:37:38
  TRACK 28 AUDIO
    TITLE "0:"
    INDEX 01 00:39:00
  TRACK 29 AUDIO
    TITLE "5:cjc004_3765"
    INDEX 01 00:39:27
  TRACK 30 AUDIO
    TITLE "0:"
    INDEX 01 00:45:47
  TRACK 31 AUDIO
    TITLE "3:cjc004_3766"
    INDEX 01 00:46:27
  TRACK 32 AUDIO
    TITLE "0:"
    INDEX 01 00:47:30
  TRACK 33 AUDIO
    TITLE "4:cjc004_3767"
    INDEX 01 00:47:56
  TRACK 34 AUDIO
    TITLE "0:"
    INDEX 01 00:48:71
  TRACK 35 AUDIO
    TITLE "5:cjc004_3768"
    INDEX 01 00:49:20
  TRACK 36 AUDIO
    TITLE "0:"
    INDEX 01 00:53:39
  TRACK 37 AUDIO
    TITLE "3:cjc004_3769"
    INDEX 01 00:54:21
  TRACK 38 AUDIO
    TITLE "0:"
    INDEX 01 00:55:22
  TRACK 39 AUDIO
    TITLE "4:cjc004_3770"
    INDEX 01 00:55:50
  TRACK 40 AUDIO
    TITLE "0:"
    INDEX 01 00:56:57
  TRACK 41 AUDIO
    TITLE "5:cjc004_3771"
    INDEX 01 00:57:09
  TRACK 42 AUDIO
    TITLE "0:"
    INDEX 01 01:01:72
  TRACK 43 AUDIO
    TITLE "3:cjc004_3772"
    INDEX 01 01:02:46
  TRACK 44 AUDIO
    TITLE "0:"
    INDEX 01 01:03:57
  TRACK 45 AUDIO
    TITLE "4:cjc004_3773"
    INDEX 01 01:04:07
  TRACK 46 AUDIO
    TITLE "0:"
    INDEX 01 01:05:22
  TRACK 47 AUDIO
    TITLE "5:cjc004_3774"
    INDEX 01 01:05:48
  TRACK 48 AUDIO
    TITLE "0:"
    INDEX 01 01:10:24
  TRACK 49 AUDIO
    TITLE "3:cjc004_3775"
    INDEX 01 01:10:73
  TRACK 50 AUDIO
    TITLE "0:"
    INDEX 01 01:11:70
  TRACK 51 AUDIO
    TITLE "4:cjc004_3776"
    INDEX 01 01:12:28
  TRACK 52 AUDIO
    TITLE "0:"
    INDEX 01 01:13:40
  TRACK 53 AUDIO
    TITLE "5:cjc004_3777"
    INDEX 01 01:13:67
  TRACK 54 AUDIO
    TITLE "0:"
    INDEX 01 01:19:07
  TRACK 55 AUDIO
    TITLE "3:cjc004_3778"
    INDEX 01 01:19:56
  TRACK 56 AUDIO
    TITLE "0:"
    INDEX 01 01:21:16
  TRACK 57 AUDIO
    TITLE "4:cjc004_3779"
    INDEX 01 01:21:41
  TRACK 58 AUDIO
    TITLE "0:"
    INDEX 01 01:22:56
  TRACK 59 AUDIO
    TITLE "5:cjc004_3780"
    INDEX 01 01:23:03
  TRACK 60 AUDIO
    TITLE "0:"
    INDEX 01 01:27:67
